<svg width="300" height="84" viewBox="0 0 300 84" fill="none" xmlns="http://www.w3.org/2000/svg">
<path d="M57.6206 30.5519C57.2891 31.5519 56.6685 32.4311 55.8372 33.0785C55.006 33.7258 54.0016 34.1121 52.9508 34.1886C51.9 34.2649 50.8501 34.0281 49.9339 33.5079C49.0178 32.9877 48.2764 32.2076 47.8036 31.266C47.3308 30.3245 47.1478 29.264 47.2778 28.2185C47.4077 27.173 47.8447 26.1895 48.5336 25.3923C49.2224 24.5952 50.1322 24.0202 51.1478 23.7401C52.1634 23.46 53.2394 23.4873 54.2394 23.8186C54.9039 24.0383 55.5183 24.3868 56.048 24.8442C56.5775 25.3016 57.0119 25.8589 57.3259 26.4843C57.6399 27.1097 57.8276 27.7908 57.8782 28.4887C57.9288 29.1867 57.8412 29.8878 57.6206 30.5519Z" fill="#FFB81C"/>
<path d="M70.1021 24.5549C69.8168 25.4171 69.2821 26.1752 68.5658 26.7336C67.8495 27.2919 66.9838 27.6253 66.0781 27.6916C65.1725 27.7579 64.2674 27.5542 63.4774 27.1062C62.6875 26.6582 62.0481 25.986 61.6401 25.1746C61.2323 24.3632 61.074 23.4491 61.1857 22.5478C61.2972 21.6466 61.6735 20.7986 62.2669 20.1112C62.8605 19.4238 63.6445 18.9278 64.5197 18.6859C65.3951 18.444 66.3224 18.4671 67.1848 18.7523C68.3406 19.1354 69.2972 19.9618 69.8443 21.0499C70.3914 22.1379 70.484 23.3986 70.1021 24.5549Z" fill="#FFB81C"/>
<path d="M82.0206 23.4104C81.7866 24.1177 81.3483 24.7397 80.7607 25.1978C80.1734 25.6559 79.4632 25.9295 78.7203 25.984C77.9774 26.0385 77.2349 25.8714 76.5869 25.5039C75.9389 25.1365 75.4144 24.5851 75.0798 23.9195C74.7452 23.2539 74.6155 22.5041 74.7071 21.7648C74.7986 21.0255 75.1074 20.33 75.5943 19.7662C76.081 19.2023 76.7243 18.7956 77.4423 18.5973C78.1604 18.399 78.9212 18.4181 79.6283 18.6522C80.098 18.8073 80.5326 19.0534 80.9071 19.3766C81.2815 19.6997 81.5886 20.0935 81.8109 20.5354C82.0331 20.9773 82.1658 21.4587 82.2018 21.9521C82.2378 22.4454 82.1763 22.9409 82.0206 23.4104Z" fill="#FFB81C"/>
<path d="M90.4369 29.767C90.2576 30.3166 89.919 30.8005 89.4642 31.1574C89.0093 31.5143 88.4589 31.7279 87.8823 31.7713C87.3058 31.8147 86.7295 31.6858 86.2263 31.4011C85.7232 31.1163 85.3161 30.6884 85.0566 30.1718C84.797 29.6553 84.6969 29.0732 84.7687 28.4996C84.8406 27.9259 85.0812 27.3866 85.4601 26.95C85.839 26.5134 86.3392 26.1992 86.897 26.0473C87.4549 25.8954 88.0452 25.9127 88.5932 26.0969C89.3223 26.3421 89.925 26.8652 90.2703 27.5525C90.6156 28.2399 90.6755 29.0357 90.4369 29.767Z" fill="#FFB81C"/>
<path d="M94.6102 37.5425C94.5043 37.8618 94.3062 38.1424 94.0406 38.349C93.7753 38.5556 93.4545 38.679 93.1191 38.7033C92.7836 38.7276 92.4485 38.6519 92.156 38.4859C91.8634 38.3198 91.6268 38.0707 91.4759 37.7701C91.3249 37.4695 91.2666 37.1309 91.308 36.797C91.3496 36.4633 91.4891 36.1493 91.7091 35.8949C91.9291 35.6404 92.2196 35.4567 92.5437 35.3673C92.868 35.2779 93.2116 35.2867 93.5308 35.3924C93.7429 35.4627 93.9391 35.5741 94.108 35.7201C94.2771 35.8662 94.4157 36.0442 94.5159 36.2438C94.6162 36.4435 94.6762 36.661 94.6923 36.8838C94.7085 37.1067 94.6806 37.3304 94.6102 37.5425Z" fill="#FFB81C"/>
<path d="M44.3069 58.9837C43.476 58.9618 42.647 58.8919 41.8243 58.7735V64.0103C41.8235 64.1708 41.7592 64.3243 41.6455 64.4375C41.5318 64.5506 41.3779 64.6142 41.2174 64.6142H37.5561C37.393 64.6151 37.2358 64.5526 37.1177 64.44C36.9997 64.3274 36.9299 64.1734 36.9231 64.0103V42.7894C36.9231 42.3051 37.0427 42.0951 37.8596 41.9142C39.9716 41.4066 42.1348 41.1423 44.3069 41.1265C49.211 41.1265 51.8921 43.9738 51.8921 48.8778V51.238C51.9037 55.9875 49.4211 58.9837 44.3069 58.9837ZM47.0113 48.8749C47.0113 46.7249 46.4687 45.1815 44.3186 45.1815C43.4885 45.1734 42.6589 45.224 41.8359 45.3334V54.7768C42.6596 54.882 43.4884 54.9425 44.3186 54.9577C46.4687 54.9577 47.0113 53.3531 47.0113 51.2351V48.8749Z" fill="black"/>
<path d="M66.764 51.5692H57.1075V51.6304C57.1075 53.3545 57.8369 54.9299 60.2262 54.9299C62.1312 54.9299 64.8269 54.7782 66.0375 54.6585H66.128C66.4606 54.6585 66.7115 54.8075 66.7115 55.1399V57.4418C66.7115 57.9261 66.5889 58.139 66.0755 58.2587C64.0495 58.7802 61.962 59.0245 59.8703 58.985C56.2091 58.985 52.2852 57.0479 52.2852 51.2044V49.0864C52.2852 44.2144 55.1295 41.125 59.9432 41.125C64.9028 41.125 67.4175 44.5179 67.4175 49.0864V50.8368C67.3971 51.2978 67.1579 51.5692 66.764 51.5692ZM62.6155 48.4213C62.6155 46.1807 61.5886 45.0605 59.8908 45.0605C58.1928 45.0605 57.1075 46.2275 57.1075 48.4213V48.5438H62.6155V48.4213Z" fill="black"/>
<path d="M75.6891 58.9837C74.8582 58.9618 74.0293 58.8917 73.2065 58.7735V64.0103C73.2065 64.1705 73.1428 64.324 73.0296 64.4372C72.9164 64.5506 72.7628 64.6142 72.6027 64.6142H68.9413C68.7779 64.6151 68.6204 64.5528 68.5018 64.4402C68.3833 64.3277 68.3128 64.1735 68.3053 64.0103V42.7894C68.3053 42.3051 68.425 42.0951 69.2447 41.9142C71.3558 41.4068 73.5181 41.1425 75.6891 41.1265C80.5933 41.1265 83.2744 43.9738 83.2744 48.8778V51.238C83.2861 55.9875 80.8062 58.9837 75.6891 58.9837ZM78.3848 48.8749C78.3848 46.7249 77.8393 45.1815 75.6891 45.1815C74.8591 45.1735 74.0295 45.2242 73.2065 45.3334V54.7768C74.0302 54.8819 74.859 54.9422 75.6891 54.9577C77.8393 54.9577 78.3848 53.3531 78.3848 51.2351V48.8749Z" fill="black"/>
<path d="M88.4383 58.7135H84.7391C84.5724 58.7071 84.4144 58.638 84.2964 58.52C84.1786 58.4021 84.1095 58.2441 84.1031 58.0775V36.104C84.1106 35.9405 84.1809 35.786 84.2994 35.6729C84.4178 35.56 84.5754 35.4969 84.7391 35.4971H88.4383C88.5169 35.4971 88.5948 35.5129 88.6671 35.5437C88.7394 35.5745 88.8048 35.6195 88.8594 35.6761C88.9138 35.7329 88.9563 35.8 88.9841 35.8735C89.0121 35.9469 89.0249 36.0254 89.0217 36.104V58.0834C89.0272 58.2441 88.9691 58.4006 88.8597 58.5186C88.7504 58.6366 88.5989 58.7066 88.4383 58.7135Z" fill="#ABABAB"/>
<path d="M94.8572 58.7138H91.1492C91.0697 58.7138 90.9909 58.6981 90.9175 58.6675C90.844 58.637 90.7774 58.5923 90.7212 58.536C90.6651 58.4795 90.6206 58.4126 90.5905 58.339C90.5603 58.2654 90.5449 58.1866 90.5454 58.107V41.974C90.5454 41.8138 90.6091 41.6603 90.7223 41.547C90.8355 41.4337 90.9891 41.3701 91.1492 41.3701H94.8572C95.0177 41.3701 95.1716 41.4337 95.2852 41.5467C95.3991 41.66 95.4633 41.8135 95.464 41.974V58.107C95.464 58.268 95.4002 58.4223 95.2863 58.5361C95.1725 58.6498 95.0182 58.7138 94.8572 58.7138Z" fill="#ABABAB"/>
<path d="M111.131 58.713H107.469C107.306 58.7055 107.152 58.6352 107.039 58.5167C106.925 58.3982 106.863 58.2407 106.863 58.077V47.9975C106.863 45.8795 106.469 45.1822 104.625 45.1822C103.75 45.1822 102.81 45.6053 101.781 46.1508V58.0828C101.781 58.2465 101.718 58.4041 101.605 58.5225C101.492 58.641 101.337 58.7113 101.174 58.7188H97.5096C97.3436 58.7116 97.1862 58.6422 97.069 58.5244C96.9516 58.4065 96.883 58.249 96.8765 58.0828V41.979C96.8765 41.8188 96.9402 41.6651 97.0534 41.5519C97.1667 41.4387 97.3202 41.3752 97.4805 41.3752H100.873C101.033 41.3752 101.187 41.4387 101.3 41.5519C101.414 41.6651 101.477 41.8188 101.477 41.979V42.7055C102.888 41.6225 104.633 41.0653 106.411 41.1301C110.787 41.1301 111.767 44.1875 111.767 48.0033V58.0828C111.76 58.2487 111.69 58.4056 111.572 58.5224C111.454 58.6392 111.297 58.7073 111.131 58.713Z" fill="#ABABAB"/>
<path d="M128.08 42.0058L122.452 49.6609L128.05 58.0834C128.076 58.1177 128.095 58.1568 128.105 58.1983C128.116 58.2398 128.118 58.2831 128.112 58.3255C128.113 58.3777 128.104 58.4295 128.085 58.4781C128.066 58.5266 128.037 58.5708 128 58.6075C127.963 58.6445 127.919 58.6734 127.87 58.6926C127.822 58.7118 127.77 58.7209 127.718 58.7194H123.155C123.001 58.7348 122.846 58.7025 122.711 58.6268C122.575 58.5512 122.467 58.4358 122.399 58.2963L118.041 51.1809V58.0834C118.042 58.2474 117.979 58.4052 117.866 58.5238C117.753 58.6425 117.598 58.7126 117.434 58.7194H113.764C113.597 58.7129 113.439 58.6438 113.322 58.5258C113.204 58.408 113.134 58.25 113.128 58.0834V36.104C113.136 35.9405 113.206 35.786 113.324 35.6729C113.443 35.56 113.6 35.4969 113.764 35.4971H117.425C117.586 35.4971 117.741 35.5611 117.854 35.6749C117.968 35.7886 118.032 35.9431 118.032 36.104V48.7478L122.63 41.8161C122.711 41.6789 122.827 41.5652 122.966 41.486C123.104 41.4068 123.261 41.3648 123.42 41.364H127.747C128.018 41.364 128.202 41.5157 128.202 41.6965C128.199 41.8109 128.156 41.9205 128.08 42.0058Z" fill="#ABABAB"/>
<path d="M174.928 58.7995H163.51V40H174.928V42.7978H167.76V47.8711H173.332V50.6688H167.76V56.0368H174.928V58.7995Z" fill="black"/>
<path d="M218.145 40L212.93 58.7995H209.883L205.919 46.5466L201.903 58.7995H198.817L193.642 40H198.196L201.353 51.3777L204.888 40H208.148L211.803 51.3777L214.72 40H218.145Z" fill="black"/>
<path d="M234.124 58.7995H229.792L228.385 54.2834H222.195L220.776 58.7995H217.341L223.653 40H227.618L234.124 58.7995ZM227.524 51.5645L225.208 44.6649L223.028 51.5645H227.524Z" fill="black"/>
<path d="M248.832 40L242.475 58.7995H238.91L232.722 40H237.456L241.444 52.5914L245.392 40H248.832Z" fill="black"/>
<path d="M262.997 58.7995H251.582V40H262.997V42.7978H255.833V47.8711H261.394V50.6688H255.833V56.0368H262.997V58.7995Z" fill="black"/>
<path d="M147.508 58.7995V40H155.863C156.968 40.0092 158.025 40.4523 158.807 41.2337C159.588 42.0152 160.031 43.0725 160.04 44.1777V46.2723C160.04 47.416 159.629 49.2306 158.809 50.0503C158.428 50.4454 157.97 50.7582 157.463 50.9694C156.956 51.1806 156.412 51.2858 155.863 51.2786H151.685V58.7995H147.508ZM151.685 48.3554H153.786C154.058 48.3568 154.328 48.3023 154.579 48.1955C154.83 48.0886 155.056 47.9315 155.244 47.734C155.44 47.5451 155.596 47.3185 155.703 47.0678C155.809 46.8171 155.863 46.5475 155.863 46.2752V44.7786C155.865 44.5062 155.812 44.236 155.705 43.9851C155.599 43.734 155.442 43.5077 155.244 43.32C155.055 43.1255 154.828 42.9714 154.577 42.8666C154.326 42.7618 154.057 42.7086 153.786 42.7103H151.685V48.3554Z" fill="black"/>
<path d="M178.739 58.7995V40H187.092C188.197 40.0092 189.254 40.4523 190.036 41.2337C190.817 42.0152 191.26 43.0725 191.269 44.1777V46.2723C191.269 47.416 190.861 49.2306 190.038 50.0503C189.657 50.4452 189.199 50.758 188.692 50.9692C188.185 51.1805 187.641 51.2857 187.092 51.2786H182.914V58.7995H178.739ZM182.914 48.3554H185.003C185.276 48.3568 185.546 48.3023 185.797 48.1955C186.047 48.0886 186.274 47.9315 186.462 47.734C186.658 47.5451 186.814 47.3185 186.92 47.0678C187.026 46.8171 187.081 46.5475 187.08 46.2752V44.7786C187.083 44.5062 187.029 44.236 186.923 43.9851C186.816 43.734 186.659 43.5077 186.462 43.32C186.272 43.1255 186.045 42.9714 185.794 42.8666C185.544 42.7618 185.275 42.7086 185.003 42.7103H182.914V48.3554Z" fill="black"/>
<path d="M137.932 31.7593H136.596V64.6146H137.932V31.7593Z" fill="black"/>
</svg>
