<svg width="160" height="34" viewBox="0 0 160 34" fill="none" xmlns="http://www.w3.org/2000/svg">
<g clip-path="url(#clip0_2078_37194)">
<path d="M14.6431 9.22734C14.4085 9.93484 13.9694 10.5569 13.3813 11.0149C12.7933 11.4728 12.0826 11.7462 11.3392 11.8003C10.5958 11.8542 9.85302 11.6867 9.20485 11.3187C8.55667 10.9507 8.03218 10.3987 7.69769 9.7326C7.36319 9.0665 7.23372 8.31618 7.32565 7.5765C7.41757 6.83682 7.72676 6.14102 8.21411 5.57706C8.70147 5.01308 9.34511 4.60629 10.0636 4.40812C10.7822 4.20994 11.5434 4.22927 12.2509 4.46366C12.721 4.61909 13.1557 4.86567 13.5305 5.18927C13.9051 5.51287 14.2124 5.90717 14.4345 6.34961C14.6567 6.79203 14.7894 7.27392 14.8253 7.76771C14.8611 8.2615 14.7991 8.7575 14.6431 9.22734Z" fill="#FFB81C"/>
<path d="M23.4735 4.98444C23.2716 5.59439 22.8934 6.13078 22.3866 6.52578C21.8798 6.92079 21.2674 7.15666 20.6266 7.20359C19.9858 7.25052 19.3455 7.10638 18.7866 6.78941C18.2278 6.47244 17.7754 5.99687 17.4868 5.42284C17.1982 4.84881 17.0863 4.20208 17.1653 3.56445C17.2442 2.92682 17.5104 2.32691 17.9302 1.84057C18.3501 1.35423 18.9048 1.00332 19.524 0.832193C20.1433 0.661067 20.7994 0.677416 21.4095 0.879174C22.2273 1.15024 22.904 1.73489 23.2911 2.50466C23.6781 3.27442 23.7437 4.16634 23.4735 4.98444Z" fill="#FFB81C"/>
<path d="M31.9053 4.17517C31.7398 4.67555 31.4297 5.11561 31.014 5.4397C30.5985 5.76379 30.096 5.95734 29.5704 5.9959C29.0448 6.03445 28.5195 5.91627 28.0611 5.65628C27.6026 5.3963 27.2316 5.0062 26.9949 4.53534C26.7581 4.06446 26.6664 3.53395 26.7311 3.01092C26.7959 2.48787 27.0143 1.99579 27.3588 1.5969C27.7032 1.19801 28.1583 0.910226 28.6663 0.769948C29.1743 0.629669 29.7126 0.643195 30.2128 0.808816C30.5451 0.918528 30.8526 1.09267 31.1175 1.32128C31.3825 1.5499 31.5997 1.82849 31.757 2.14115C31.9142 2.4538 32.0081 2.79437 32.0336 3.14339C32.059 3.49241 32.0155 3.84301 31.9053 4.17517Z" fill="#FFB81C"/>
<path d="M37.8601 8.67188C37.7333 9.06072 37.4937 9.40311 37.172 9.65558C36.8502 9.90806 36.4607 10.0592 36.0528 10.0899C35.6449 10.1206 35.2372 10.0294 34.8812 9.82796C34.5253 9.62648 34.2373 9.3238 34.0536 8.95831C33.87 8.59284 33.7992 8.18105 33.85 7.7752C33.9008 7.36937 34.0711 6.98779 34.3391 6.67889C34.6072 6.37 34.9611 6.14772 35.3557 6.04027C35.7504 5.93282 36.168 5.94504 36.5557 6.07539C37.0715 6.24881 37.498 6.61893 37.7422 7.1052C37.9866 7.59147 38.0289 8.15453 37.8601 8.67188Z" fill="#FFB81C"/>
<path d="M40.8122 14.174C40.7373 14.3999 40.5971 14.5984 40.4092 14.7446C40.2215 14.8907 39.9945 14.978 39.7573 14.9952C39.5199 15.0124 39.2828 14.9589 39.0759 14.8414C38.8689 14.7239 38.7015 14.5477 38.5947 14.335C38.4879 14.1223 38.4467 13.8827 38.476 13.6466C38.5053 13.4105 38.6041 13.1883 38.7597 13.0083C38.9154 12.8283 39.1209 12.6983 39.3502 12.6351C39.5796 12.5718 39.8227 12.578 40.0485 12.6528C40.1986 12.7026 40.3374 12.7814 40.4569 12.8846C40.5765 12.9881 40.6746 13.114 40.7455 13.2552C40.8164 13.3964 40.8589 13.5503 40.8703 13.7079C40.8817 13.8657 40.862 14.0239 40.8122 14.174Z" fill="#FFB81C"/>
<path d="M5.22395 29.3427C4.63607 29.3272 4.0496 29.2777 3.46749 29.194V32.8989C3.46695 33.0124 3.42147 33.1211 3.34103 33.2012C3.26057 33.2812 3.15168 33.3261 3.03818 33.3261H0.447885C0.332439 33.3268 0.221248 33.2826 0.137712 33.2029C0.0541758 33.1232 0.00480859 33.0143 0 32.8989V17.8855C0 17.5428 0.084624 17.3943 0.662539 17.2663C2.15678 16.9072 3.68719 16.7202 5.22395 16.709C8.69351 16.709 10.5903 18.7235 10.5903 22.193V23.8627C10.5986 27.2229 8.84211 29.3427 5.22395 29.3427ZM7.13726 22.1909C7.13726 20.6698 6.75336 19.5779 5.2322 19.5779C4.64492 19.5721 4.05796 19.6079 3.47576 19.6853V26.3663C4.05848 26.4408 4.64483 26.4836 5.2322 26.4943C6.75336 26.4943 7.13726 25.3591 7.13726 23.8607V22.1909Z" fill="white"/>
<path d="M21.1117 24.0971H14.2799V24.1404C14.2799 25.3602 14.7959 26.4748 16.4863 26.4748C17.8341 26.4748 19.7413 26.3674 20.5977 26.2828H20.6617C20.8971 26.2828 21.0746 26.3881 21.0746 26.6233V28.2518C21.0746 28.5945 20.9878 28.7451 20.6246 28.8298C19.1913 29.1988 17.7144 29.3716 16.2345 29.3437C13.6443 29.3437 10.8682 27.9732 10.8682 23.839V22.3406C10.8682 18.8937 12.8805 16.708 16.2861 16.708C19.7949 16.708 21.5741 19.1084 21.5741 22.3406V23.579C21.5596 23.9051 21.3903 24.0971 21.1117 24.0971ZM18.1767 21.87C18.1767 20.2848 17.4502 19.4923 16.249 19.4923C15.0477 19.4923 14.2799 20.3179 14.2799 21.87V21.9567H18.1767V21.87Z" fill="white"/>
<path d="M27.4261 29.3427C26.8382 29.3272 26.2518 29.2776 25.6697 29.194V32.8989C25.6697 33.0122 25.6246 33.1208 25.5445 33.201C25.4644 33.2812 25.3558 33.3261 25.2425 33.3261H22.6521C22.5365 33.3268 22.4251 33.2827 22.3411 33.203C22.2573 33.1235 22.2075 33.0144 22.2021 32.8989V17.8855C22.2021 17.5428 22.2868 17.3943 22.8667 17.2663C24.3603 16.9073 25.8901 16.7203 27.4261 16.709C30.8957 16.709 32.7925 18.7235 32.7925 22.193V23.8627C32.8008 27.2229 31.0463 29.3427 27.4261 29.3427ZM29.3333 22.1909C29.3333 20.6698 28.9473 19.5779 27.4261 19.5779C26.8389 19.5722 26.2519 19.608 25.6697 19.6853V26.3663C26.2524 26.4407 26.8388 26.4834 27.4261 26.4943C28.9473 26.4943 29.3333 25.3591 29.3333 23.8607V22.1909Z" fill="white"/>
<path d="M36.446 29.1518H33.8289C33.711 29.1472 33.5992 29.0984 33.5157 29.0149C33.4323 28.9315 33.3835 28.8197 33.3789 28.7019V13.156C33.3842 13.0402 33.434 12.931 33.5178 12.851C33.6016 12.7711 33.7131 12.7265 33.8289 12.7266H36.446C36.5016 12.7266 36.5567 12.7378 36.6079 12.7595C36.659 12.7813 36.7053 12.8132 36.7439 12.8533C36.7824 12.8934 36.8125 12.9409 36.8322 12.9929C36.852 13.0448 36.861 13.1003 36.8587 13.156V28.706C36.8627 28.8197 36.8215 28.9304 36.7441 29.0139C36.6669 29.0974 36.5596 29.1469 36.446 29.1518Z" fill="#ABABAB"/>
<path d="M40.9871 29.1512H38.3637C38.3075 29.1512 38.2517 29.1401 38.1998 29.1185C38.1478 29.0969 38.1007 29.0652 38.0609 29.0254C38.0212 28.9855 37.9898 28.9381 37.9684 28.8861C37.9471 28.8339 37.9362 28.7782 37.9365 28.7219V17.3081C37.9365 17.1948 37.9816 17.0861 38.0617 17.006C38.1418 16.9258 38.2504 16.8809 38.3637 16.8809H40.9871C41.1006 16.8809 41.2095 16.9258 41.2899 17.0058C41.3704 17.0859 41.4158 17.1945 41.4164 17.3081V28.7219C41.4164 28.8358 41.3712 28.945 41.2907 29.0255C41.2101 29.1059 41.1009 29.1512 40.9871 29.1512Z" fill="#ABABAB"/>
<path d="M52.5007 29.1512H49.9103C49.7946 29.1459 49.6855 29.0961 49.6055 29.0123C49.5255 28.9285 49.4809 28.8171 49.481 28.7013V21.5702C49.481 20.0717 49.2024 19.5784 47.898 19.5784C47.2788 19.5784 46.6142 19.8777 45.8856 20.2637V28.7054C45.8857 28.8212 45.8412 28.9327 45.7612 29.0165C45.6812 29.1003 45.572 29.15 45.4563 29.1554H42.8639C42.7465 29.1502 42.6351 29.1011 42.5522 29.0178C42.4691 28.9344 42.4206 28.8229 42.416 28.7054V17.3122C42.416 17.1989 42.4611 17.0902 42.5412 17.01C42.6213 16.9299 42.7299 16.885 42.8433 16.885H45.2437C45.357 16.885 45.4657 16.9299 45.5458 17.01C45.6259 17.0902 45.671 17.1989 45.671 17.3122V17.8262C46.6693 17.06 47.9035 16.6658 49.1612 16.7116C52.2571 16.7116 52.9507 18.8746 52.9507 21.5743V28.7054C52.9455 28.8227 52.8963 28.9337 52.813 29.0164C52.7295 29.099 52.618 29.1472 52.5007 29.1512Z" fill="#ABABAB"/>
<path d="M64.492 17.3314L60.5105 22.7472L64.4713 28.706C64.4895 28.7303 64.5028 28.7579 64.5102 28.7873C64.5176 28.8167 64.5191 28.8473 64.5147 28.8773C64.5159 28.9142 64.5094 28.9509 64.4958 28.9853C64.4822 29.0196 64.4618 29.0508 64.4356 29.0768C64.4095 29.1029 64.3784 29.1234 64.344 29.137C64.3097 29.1506 64.2729 29.157 64.236 29.1559H61.0079C60.899 29.1668 60.7892 29.144 60.6936 29.0904C60.5979 29.037 60.5211 28.9554 60.4734 28.8566L57.3898 23.8226V28.706C57.3904 28.822 57.346 28.9337 57.266 29.0176C57.1859 29.1015 57.0764 29.1512 56.9605 29.1559H54.364C54.2461 29.1514 54.1344 29.1025 54.051 29.019C53.9675 28.9356 53.9186 28.8239 53.9141 28.706V13.156C53.9194 13.0402 53.9691 12.931 54.0529 12.851C54.1368 12.7711 54.2482 12.7265 54.364 12.7266H56.9543C57.0681 12.7266 57.1774 12.7718 57.2578 12.8524C57.3384 12.9328 57.3837 13.0421 57.3837 13.156V22.1013L60.6365 17.1972C60.6941 17.1001 60.776 17.0197 60.8741 16.9636C60.972 16.9076 61.0829 16.8779 61.1958 16.8773H64.2567C64.4486 16.8773 64.5787 16.9846 64.5787 17.1125C64.5767 17.1935 64.546 17.271 64.492 17.3314Z" fill="#ABABAB"/>
<path d="M97.6361 29.2125H89.5576V15.9121H97.6361V17.8915H92.5649V21.4808H96.5071V23.4601H92.5649V27.2578H97.6361V29.2125Z" fill="white"/>
<path d="M128.211 15.9121L124.522 29.2125H122.367L119.562 20.5437L116.721 29.2125H114.537L110.876 15.9121H114.098L116.331 23.9616L118.832 15.9121H121.139L123.725 23.9616L125.789 15.9121H128.211Z" fill="white"/>
<path d="M139.516 29.2125H136.451L135.456 26.0174H131.077L130.073 29.2125H127.643L132.108 15.9121H134.913L139.516 29.2125ZM134.847 24.0938L133.209 19.2125L131.667 24.0938H134.847Z" fill="white"/>
<path d="M149.921 15.9121L145.424 29.2125H142.902L138.524 15.9121H141.874L144.695 24.8203L147.488 15.9121H149.921Z" fill="white"/>
<path d="M159.943 29.2125H151.867V15.9121H159.943V17.8915H154.875V21.4808H158.809V23.4601H154.875V27.2578H159.943V29.2125Z" fill="white"/>
<path d="M78.2363 29.2125V15.9121H84.1475C84.9294 15.9186 85.6774 16.2321 86.2303 16.7849C86.7833 17.3379 87.0967 18.0858 87.1031 18.8678V20.3497C87.1031 21.1588 86.8121 22.4426 86.2322 23.0225C85.9625 23.302 85.6383 23.5233 85.2798 23.6728C84.9213 23.8222 84.536 23.8967 84.1475 23.8915H81.192V29.2125H78.2363ZM81.192 21.8234H82.678C82.8709 21.8244 83.062 21.7859 83.2394 21.7103C83.417 21.6347 83.5771 21.5235 83.71 21.3838C83.8487 21.2501 83.959 21.0898 84.0342 20.9125C84.1094 20.7351 84.1479 20.5444 84.1475 20.3517V19.2929C84.1494 19.1001 84.1114 18.909 84.036 18.7315C83.9608 18.5539 83.8498 18.3937 83.71 18.261C83.5758 18.1234 83.4152 18.0143 83.2379 17.9402C83.0606 17.8661 82.8701 17.8284 82.678 17.8296H81.192V21.8234Z" fill="white"/>
<path d="M100.333 29.2125V15.9121H106.242C107.024 15.9186 107.772 16.2321 108.325 16.7849C108.878 17.3379 109.191 18.0858 109.198 18.8678V20.3497C109.198 21.1588 108.909 22.4426 108.327 23.0225C108.057 23.3019 107.733 23.5232 107.374 23.6727C107.016 23.8221 106.63 23.8965 106.242 23.8915H103.286V29.2125H100.333ZM103.286 21.8234H104.764C104.957 21.8244 105.148 21.7859 105.326 21.7103C105.503 21.6347 105.663 21.5235 105.796 21.3838C105.935 21.2501 106.045 21.0898 106.121 20.9125C106.196 20.7351 106.234 20.5444 106.234 20.3517V19.2929C106.236 19.1001 106.198 18.909 106.122 18.7315C106.047 18.5539 105.936 18.3937 105.796 18.261C105.662 18.1234 105.502 18.0143 105.324 17.9402C105.147 17.8661 104.956 17.8284 104.764 17.8296H103.286V21.8234Z" fill="white"/>
<path d="M71.4619 10.082H70.5166V33.3266H71.4619V10.082Z" fill="white"/>
</g>
<defs>
<clipPath id="clip0_2078_37194">
<rect width="160" height="32.6531" fill="white" transform="translate(0 0.673828)"/>
</clipPath>
</defs>
</svg>
